<svg width="1726" height="1775" viewBox="0 0 1726 1775" fill="none" xmlns="http://www.w3.org/2000/svg">
<path d="M868.316 1774.31C1218.98 1774.31 1503.25 1747.11 1503.25 1713.55C1503.25 1680 1218.98 1652.79 868.316 1652.79C517.65 1652.79 233.379 1680 233.379 1713.55C233.379 1747.11 517.65 1774.31 868.316 1774.31Z" fill="#0D6EFD"/>
<path opacity="0.5" d="M868.316 1774.31C1218.98 1774.31 1503.25 1747.11 1503.25 1713.55C1503.25 1680 1218.98 1652.79 868.316 1652.79C517.65 1652.79 233.379 1680 233.379 1713.55C233.379 1747.11 517.65 1774.31 868.316 1774.31Z" fill="white"/>
<path d="M1351.62 535.217C1353.78 553.118 1345.14 579.31 1326.62 577.325C1323.59 576.946 1320.63 576.175 1317.8 575.033C1319.61 561.805 1311.62 546.857 1318.24 535.349C1321.81 528.911 1330.89 516.962 1337.95 515.904C1347.56 514.361 1350.38 525.384 1351.62 535.217Z" fill="#0D6EFD"/>
<path d="M1331.2 591.92C1325.03 605.148 1316.56 615.951 1296.68 615.422C1292.22 615.239 1287.9 613.869 1284.16 611.453C1282.3 610.329 1280.7 608.817 1279.47 607.022C1278.25 605.227 1277.42 603.189 1277.06 601.047C1276.86 598.236 1277.51 595.431 1278.92 592.99C1280.32 590.548 1282.42 588.579 1284.95 587.334C1290.05 584.833 1295.63 583.45 1301.31 583.278C1307.37 582.896 1313.44 583.521 1319.3 585.13C1323.63 586.686 1327.66 588.983 1331.2 591.92V591.92Z" fill="#0D6EFD"/>
<path d="M1287.24 543.903C1308.1 567.757 1331.07 589.01 1351.84 611.982" stroke="#0D6EFD" stroke-miterlimit="10"/>
<path d="M1418.11 608.323C1418.75 618.467 1416.11 628.547 1410.57 637.071C1405.23 645.008 1397.34 649.726 1388.52 647.565C1385.65 646.721 1382.87 645.583 1380.23 644.17C1381.52 637.335 1381.69 630.335 1380.72 623.447C1379.55 616.78 1380.46 609.914 1383.32 603.781C1387.02 597.388 1395.84 585.042 1403.51 584.865C1413.74 584.645 1417.54 597.608 1418.11 608.323Z" fill="#0D6EFD"/>
<path d="M1390.77 662.601C1387.04 668.581 1381.95 673.596 1375.91 677.24C1368.88 680.851 1360.85 682.03 1353.07 680.591C1349.03 680.067 1345.22 678.434 1342.05 675.873C1340.51 674.783 1339.26 673.325 1338.42 671.631C1337.58 669.937 1337.18 668.061 1337.24 666.173C1337.59 663.434 1338.65 660.835 1340.32 658.631C1341.98 656.428 1344.19 654.696 1346.72 653.606C1351.81 651.402 1357.33 650.392 1362.86 650.652C1368.8 650.674 1374.68 651.888 1380.15 654.223C1384.15 656.373 1387.75 659.208 1390.77 662.601Z" fill="#0D6EFD"/>
<path d="M1351.84 612.203C1362.38 623.535 1372.03 635.572 1381.47 647.742C1390.9 659.911 1399.37 672.875 1407.26 686.147" stroke="#0D6EFD" stroke-miterlimit="10"/>
<path d="M1473 694.789C1470.32 714.101 1453.6 735.354 1436.58 727.814C1433.87 726.539 1431.33 724.908 1429.04 722.964C1430.51 719.844 1431.54 716.535 1432.09 713.131C1432.66 709.736 1432.97 706.209 1433.37 702.725C1433.54 695.946 1435.8 689.386 1439.85 683.942C1444.74 678.386 1455.63 668.024 1463.35 669.259C1473.27 671.023 1474.42 684.383 1473 694.789Z" fill="#0D6EFD"/>
<path d="M1436.19 743.026C1425.83 753.741 1414.36 760.663 1395.93 754.093C1388.04 751.492 1380.94 744.305 1382.7 736.456C1383.5 733.82 1385 731.447 1387.03 729.585C1389.06 727.724 1391.56 726.442 1394.25 725.874C1399.72 724.621 1405.41 724.621 1410.88 725.874C1416.68 727.14 1422.2 729.472 1427.15 732.753C1430.79 735.563 1433.86 739.052 1436.19 743.026V743.026Z" fill="#0D6EFD"/>
<path d="M1407.13 685.926C1423.02 712.489 1436.92 740.197 1448.71 768.821" stroke="#0D6EFD" stroke-miterlimit="10"/>
<path d="M1512.95 788.971C1510.09 798.962 1503.86 807.655 1495.32 813.575C1487.38 818.91 1478.34 820.189 1470.93 814.765C1468.56 812.946 1466.4 810.86 1464.49 808.548C1468.32 802.685 1470.94 796.12 1472.21 789.236C1473.22 782.575 1476.31 776.403 1481.03 771.598C1486.59 766.836 1499.02 758.371 1506.34 760.399C1508.55 761.126 1510.49 762.512 1511.89 764.372C1513.3 766.232 1514.1 768.477 1514.19 770.805C1515.11 776.877 1514.69 783.079 1512.95 788.971V788.971Z" fill="#0D6EFD"/>
<path d="M1467.32 829.492C1454.79 837.517 1441.92 840.912 1425.65 831.521C1418.77 827.596 1413.35 820.321 1416.83 813.883C1418.32 811.679 1420.28 809.83 1422.57 808.466C1424.85 807.102 1427.41 806.257 1430.06 805.991C1435.5 805.398 1441 806.17 1446.06 808.24C1451.54 810.316 1456.52 813.532 1460.66 817.675C1463.62 821.147 1465.88 825.16 1467.32 829.492Z" fill="#0D6EFD"/>
<path d="M1448.84 768.821L1457.66 790.382C1460.38 797.491 1462.69 804.749 1464.58 812.12C1468.5 826.971 1471.4 842.07 1473.27 857.315" stroke="#0D6EFD" stroke-miterlimit="10"/>
<path d="M1528.65 894.397C1523.03 903.064 1514.71 909.635 1504.97 913.092C1495.8 916.047 1486.89 914.724 1481.16 907.493C1479.4 905.084 1477.92 902.48 1476.75 899.732C1487.69 891.707 1491.3 874.732 1503.47 868.867C1510.22 865.869 1524.59 860.931 1530.94 865.472C1539.41 871.954 1534.6 885.578 1528.65 894.397Z" fill="#0D6EFD"/>
<path d="M1473.27 920.853C1466.58 923.049 1459.46 923.638 1452.5 922.572C1444.91 920.956 1438 917.046 1432.7 911.373C1427.15 905.817 1423.89 897.395 1429.04 891.575C1431.03 889.694 1433.45 888.335 1436.09 887.619C1438.73 886.904 1441.5 886.854 1444.17 887.474C1449.56 888.707 1454.6 891.166 1458.9 894.662C1463.54 898.259 1467.41 902.758 1470.27 907.889C1472.12 911.969 1473.14 916.375 1473.27 920.853V920.853Z" fill="#0D6EFD"/>
<path d="M1473.27 857.315C1477.31 887.727 1476.55 918.586 1471.02 948.763" stroke="#0D6EFD" stroke-miterlimit="10"/>
<path d="M1509.43 1004.63C1505.04 1007.87 1500.13 1010.34 1494.92 1011.95C1489.97 1013.45 1484.77 1013.99 1479.62 1013.54C1475.21 1013.42 1470.95 1011.88 1467.48 1009.16C1464.01 1006.44 1461.51 1002.67 1460.35 998.412C1459.76 995.507 1459.44 992.556 1459.38 989.593C1466.06 987.486 1472.23 984.018 1477.5 979.408C1482.57 974.789 1488.81 971.648 1495.54 970.325C1502.9 969.707 1518.24 969.443 1522.61 976.277C1528.61 985.228 1518.69 997.486 1509.43 1004.63Z" fill="#0D6EFD"/>
<path d="M1447.87 1006.66C1440.62 1005.72 1433.76 1002.85 1428.02 998.328C1422.27 993.809 1417.86 987.82 1415.24 980.995C1412.11 974.161 1412.02 966.709 1418.55 963.931C1421.12 963.143 1423.84 962.927 1426.51 963.301C1429.17 963.674 1431.72 964.627 1433.98 966.092C1438.58 969.036 1442.42 973.024 1445.18 977.732C1448.17 982.637 1450.01 988.154 1450.56 993.87C1450.64 998.281 1449.72 1002.65 1447.87 1006.66Z" fill="#0D6EFD"/>
<path d="M1470.84 948.763C1467.89 963.657 1463.26 978.168 1457.04 992.019C1450.73 1005.71 1442.46 1018.41 1432.48 1029.72" stroke="#0D6EFD" stroke-miterlimit="10"/>
<path d="M1443.24 1094.09C1433.45 1095.43 1423.47 1093.99 1414.45 1089.95C1405.63 1085.85 1399.94 1078.93 1400.74 1069.71C1401.05 1066.69 1401.77 1063.72 1402.9 1060.89C1416.12 1062.57 1430.98 1054.19 1442.58 1060.67C1446.82 1063.03 1450.88 1065.69 1454.75 1068.61C1456.72 1069.91 1458.4 1071.6 1459.71 1073.57C1461.01 1075.54 1461.9 1077.75 1462.33 1080.07C1464.1 1089.51 1453.21 1092.81 1443.24 1094.09Z" fill="#0D6EFD"/>
<path d="M1386.14 1074.25C1372.91 1067.9 1362.64 1059.08 1362.64 1039.77C1362.64 1031.61 1367.45 1021.91 1376.18 1020.63C1378.99 1020.38 1381.82 1020.97 1384.3 1022.34C1386.77 1023.71 1388.78 1025.79 1390.07 1028.31C1392.65 1033.35 1394.16 1038.88 1394.48 1044.53C1395 1050.56 1394.48 1056.63 1392.93 1062.48C1391.42 1066.79 1389.11 1070.78 1386.14 1074.25Z" fill="#0D6EFD"/>
<path d="M1432.48 1029.72C1430.15 1032.63 1427.28 1035.14 1424.72 1037.88L1416.3 1046.08L1399.68 1062.7C1394.17 1068.17 1388.7 1073.63 1383.06 1078.88C1380.23 1081.48 1377.41 1084.08 1374.5 1086.6C1371.59 1089.11 1368.64 1091.54 1365.68 1094.27" stroke="#0D6EFD" stroke-miterlimit="10"/>
<path d="M1380.67 1155.56C1376.29 1156.08 1371.86 1156.22 1367.45 1155.96C1362.66 1155.67 1357.92 1154.88 1353.29 1153.62C1344.47 1151.15 1336.54 1146.03 1335.66 1136.82C1335.45 1133.79 1335.69 1130.74 1336.36 1127.78C1350.03 1127.34 1363.48 1118.39 1375.43 1124.87C1381.91 1128.18 1393.86 1137.13 1395.71 1143.7C1396.37 1145.39 1396.37 1147.26 1395.71 1148.94C1395.07 1150.42 1393.93 1151.62 1392.49 1152.34C1388.75 1154.03 1384.76 1155.12 1380.67 1155.56V1155.56Z" fill="#0D6EFD"/>
<path d="M1322.34 1144.8C1315.3 1144.14 1308.52 1141.83 1302.54 1138.05C1296.94 1134 1292.84 1127.52 1291.78 1116.01C1290.81 1106.44 1296.19 1093.21 1305.72 1089.99C1308.48 1089.07 1311.48 1089.13 1314.21 1090.16C1316.93 1091.2 1319.21 1093.15 1320.66 1095.68C1323.54 1100.79 1325.37 1106.43 1326.04 1112.26C1326.98 1118.49 1327.16 1124.81 1326.57 1131.09C1325.79 1135.83 1324.36 1140.44 1322.34 1144.8V1144.8Z" fill="#0D6EFD"/>
<path d="M1365.64 1094.27C1341.54 1115.77 1322.58 1142.39 1310.13 1172.18" stroke="#0D6EFD" stroke-miterlimit="10"/>
<path d="M1349.81 1221.08C1342.04 1225.96 1333.4 1229.3 1324.37 1230.91C1315.02 1232.37 1306.07 1231.18 1301.26 1223.2C1299.73 1220.56 1298.66 1217.68 1298.09 1214.69C1310.13 1208.47 1318.68 1194.71 1332.17 1195.37C1339.45 1195.37 1354.22 1198.42 1358.63 1203.66C1364.49 1210.45 1356.95 1216.27 1349.81 1221.08Z" fill="#0D6EFD"/>
<path d="M1292.49 1236.12C1278.29 1240.13 1264.4 1242.82 1252.5 1223.11C1250 1218.41 1248.68 1213.17 1248.66 1207.85C1248.64 1202.61 1250.56 1197.54 1254.04 1193.61C1256.19 1191.61 1258.95 1190.4 1261.88 1190.19C1264.81 1189.98 1267.72 1190.79 1270.13 1192.46C1274.85 1195.88 1278.87 1200.18 1281.95 1205.12C1285.46 1210.38 1288.33 1216.03 1290.5 1221.96C1291.25 1224.25 1291.71 1226.62 1291.87 1229.02C1292.49 1231.4 1292.49 1233.91 1292.49 1236.12Z" fill="#0D6EFD"/>
<path d="M1310.13 1172.18C1297.48 1201.84 1291.68 1233.98 1293.15 1266.19" stroke="#0D6EFD" stroke-miterlimit="10"/>
<path d="M1667.28 1031.08C1663.32 1035.01 1658.65 1038.16 1653.52 1040.34C1648.79 1042.46 1643.67 1043.57 1638.49 1043.61C1634.07 1043.95 1629.66 1042.85 1625.93 1040.46C1622.2 1038.07 1619.35 1034.53 1617.81 1030.38C1616.84 1027.52 1616.22 1024.56 1615.95 1021.56C1622.38 1018.66 1628.11 1014.42 1632.75 1009.13C1637.21 1003.76 1642.92 999.581 1649.38 996.957C1656.56 995.105 1671.64 991.754 1677.07 998.412C1678.69 1000.83 1679.65 1003.62 1679.85 1006.53C1680.06 1009.43 1679.49 1012.33 1678.21 1014.95C1675.75 1021.04 1672.02 1026.54 1667.28 1031.08V1031.08Z" fill="#0D6EFD"/>
<path d="M1605.94 1040.17C1598.61 1040.05 1591.44 1037.89 1585.26 1033.95C1579.07 1030 1574.09 1024.42 1570.89 1017.81C1567.41 1011.38 1565.95 1004.23 1572.21 1001.28C1577.24 999.41 1582.8 999.6 1587.69 1001.81C1592.63 1004.01 1596.94 1007.42 1600.21 1011.73C1603.83 1016.2 1606.31 1021.48 1607.44 1027.12C1607.9 1031.52 1607.39 1035.98 1605.94 1040.17V1040.17Z" fill="#0D6EFD"/>
<path d="M1621.07 980.202C1620.52 1010.69 1610.79 1040.3 1593.16 1065.17" stroke="#0D6EFD" stroke-miterlimit="10"/>
<path d="M1607.05 1131.44C1596.83 1133.93 1586.06 1132.74 1576.62 1128.09C1568.11 1123.68 1562.87 1116.23 1564.1 1107.01C1564.64 1104 1565.47 1101.05 1566.57 1098.19C1579.8 1100.44 1594.7 1090.52 1607.53 1094.4C1614.54 1096.74 1628.78 1102.52 1630.06 1110.5C1632 1121.52 1618.16 1128.79 1607.05 1131.44Z" fill="#0D6EFD"/>
<path d="M1549.33 1110.45C1543.1 1107.14 1537.74 1102.41 1533.68 1096.65C1529.64 1090.03 1527.69 1082.35 1528.08 1074.6C1528.03 1070.84 1528.97 1067.13 1530.81 1063.85C1531.59 1062.38 1532.74 1061.14 1534.15 1060.27C1535.56 1059.39 1537.18 1058.91 1538.84 1058.86C1541.54 1059.05 1544.16 1059.86 1546.5 1061.23C1548.84 1062.6 1550.84 1064.49 1552.33 1066.76C1555.38 1071.31 1557.31 1076.52 1557.97 1081.97C1558.78 1087.76 1558.33 1093.65 1556.65 1099.25C1554.98 1103.43 1552.49 1107.24 1549.33 1110.45V1110.45Z" fill="#0D6EFD"/>
<path d="M1593.16 1065.17C1584.54 1077.82 1574.56 1089.48 1563.4 1099.96C1552.1 1110.42 1539.94 1119.92 1527.06 1128.35" stroke="#0D6EFD" stroke-miterlimit="10"/>
<path d="M1518.55 1194.63C1508.45 1193.39 1499.01 1188.96 1491.61 1181.97C1484.78 1175.22 1481.56 1166.76 1485.39 1158.34C1486.7 1155.61 1488.35 1153.07 1490.29 1150.75C1502.46 1156.79 1519.26 1152.43 1529.75 1160.89C1535.44 1165.57 1546.24 1176.24 1544.96 1184C1543.2 1194.23 1529.22 1195.95 1518.55 1194.63Z" fill="#0D6EFD"/>
<path d="M1470.09 1157.76C1459.51 1147.4 1452.94 1135.72 1459.38 1117.42C1462.16 1109.75 1468.86 1102.56 1476.58 1104.46C1479.19 1105.32 1481.53 1106.84 1483.38 1108.87C1485.24 1110.9 1486.54 1113.37 1487.16 1116.05C1488.42 1121.48 1488.42 1127.12 1487.16 1132.54C1485.97 1138.38 1483.66 1143.94 1480.37 1148.9C1477.51 1152.45 1474.03 1155.45 1470.09 1157.76V1157.76Z" fill="#0D6EFD"/>
<path d="M1527.06 1128.35C1500.87 1145.06 1473.03 1159.06 1443.99 1170.11" stroke="#0D6EFD" stroke-miterlimit="10"/>
<path d="M1426.84 1233.38C1417.63 1230.39 1409.39 1224.99 1402.99 1217.73C1396.81 1210.59 1393.64 1202.08 1398.05 1193.83C1399.57 1191.21 1401.44 1188.81 1403.6 1186.69C1415.24 1193.7 1432 1192.16 1440.68 1202.47C1445.36 1208.12 1453.69 1220.73 1451.44 1227.96C1448.45 1237.57 1436.14 1236.25 1426.84 1233.38Z" fill="#0D6EFD"/>
<path d="M1382.57 1192.73C1372.16 1182.28 1364.14 1170.95 1373.75 1151.77C1377.9 1143.7 1387.46 1136.33 1395.8 1138.85C1398.45 1139.8 1400.76 1141.51 1402.43 1143.77C1404.11 1146.03 1405.09 1148.74 1405.23 1151.55C1405.53 1157.21 1404.59 1162.87 1402.46 1168.13C1400.32 1173.9 1397.27 1179.29 1393.42 1184.09C1390.25 1187.49 1386.59 1190.4 1382.57 1192.73V1192.73Z" fill="#0D6EFD"/>
<path d="M1443.99 1170.11C1415.07 1181.62 1384.64 1191.23 1356.38 1206.88" stroke="#0D6EFD" stroke-miterlimit="10"/>
<path d="M1358.63 1269.41C1349.8 1268.26 1341.21 1265.76 1333.14 1262C1324.85 1258.03 1317.62 1252.12 1318.15 1242.77C1318.44 1239.73 1319.23 1236.75 1320.49 1233.96C1327.34 1234.46 1334.22 1234.46 1341.08 1233.96C1347.56 1233.37 1354.02 1235.19 1359.25 1239.07C1364.89 1243.7 1374.63 1254.99 1375.03 1261.82C1375.78 1270.6 1366.87 1270.16 1358.63 1269.41Z" fill="#0D6EFD"/>
<path d="M1303.78 1249.08C1296.81 1247.8 1290.24 1244.9 1284.6 1240.61C1279.53 1236.2 1276.17 1228.49 1277.59 1216.1C1278.64 1205.6 1287.46 1192.33 1297.91 1190.74C1300.84 1190.24 1303.86 1190.81 1306.4 1192.36C1308.94 1193.91 1310.83 1196.33 1311.71 1199.17C1313.4 1204.88 1313.95 1210.87 1313.34 1216.8C1312.94 1223.26 1311.88 1229.66 1310.17 1235.9C1308.48 1240.49 1306.34 1244.91 1303.78 1249.08V1249.08Z" fill="#0D6EFD"/>
<path d="M1356.38 1206.88C1342.06 1214.63 1328.88 1224.32 1317.22 1235.68C1305.22 1247.18 1295.89 1261.18 1289.89 1276.68" stroke="#0D6EFD" stroke-miterlimit="10"/>
<path d="M1191.69 1737.98C1190.24 1738.33 1139.44 1738.33 1137.94 1737.98C1100.68 1729.78 968.362 1686.3 1087.63 1545.52H1240.33C1359.51 1686.26 1229 1729.78 1191.69 1737.98Z" fill="white" stroke="#263238" stroke-miterlimit="10"/>
<path d="M1240.28 1546.44C1240.28 1548.74 1236.84 1550.85 1230.8 1552.75C1217.57 1548.65 1192.53 1545.91 1163.52 1545.91C1134.5 1545.91 1109.33 1548.65 1096.28 1552.75C1090.23 1550.9 1086.8 1548.74 1086.8 1546.44C1086.8 1539.21 1121.14 1533.21 1163.52 1533.21C1205.89 1533.21 1240.28 1539.21 1240.28 1546.44Z" fill="white" stroke="#263238" stroke-miterlimit="10"/>
<path d="M1230.76 1552.75C1217.53 1556.8 1192.49 1559.54 1163.47 1559.54C1134.46 1559.54 1109.28 1556.8 1096.23 1552.75C1109.46 1548.65 1134.5 1545.91 1163.47 1545.91C1192.44 1545.91 1217.75 1548.65 1230.76 1552.75Z" fill="#263238" stroke="#263238" stroke-miterlimit="10"/>
<path d="M1222.34 1586.3C1227.67 1585.2 1232.96 1583.97 1238.12 1582.6Z" fill="white"/>
<path d="M1222.34 1586.3C1227.67 1585.2 1232.96 1583.97 1238.12 1582.6" stroke="#263238" stroke-miterlimit="10"/>
<path d="M1090.63 1580.35C1127.05 1593.58 1169.78 1594.86 1209.37 1588.64Z" fill="white"/>
<path d="M1090.63 1580.35C1127.05 1593.58 1169.78 1594.86 1209.37 1588.64" stroke="#263238" stroke-miterlimit="10"/>
<path d="M1274.85 1330.08C1257.43 1331.53 1233.32 1320.6 1234.07 1303.62C1234.28 1300.92 1234.85 1298.25 1235.74 1295.69C1248.35 1298.64 1261.62 1291.67 1273.53 1297.45C1280.05 1300.71 1292.97 1308.47 1294.3 1315.79C1295.88 1325.54 1284.33 1329.28 1274.85 1330.08Z" fill="#0D6EFD"/>
<path d="M1220.62 1306.53C1207.83 1299.65 1197.51 1290.84 1197.29 1272.05C1197.29 1264.16 1201.17 1255.78 1208.62 1255.87C1211.34 1256.13 1213.96 1257.03 1216.26 1258.5C1218.56 1259.98 1220.48 1261.98 1221.85 1264.34C1224.66 1268.97 1226.46 1274.13 1227.14 1279.5C1227.99 1285 1227.79 1290.61 1226.57 1296.04C1225.28 1299.89 1223.26 1303.45 1220.62 1306.53Z" fill="#0D6EFD"/>
<path d="M1260.92 1268.26C1243.28 1288.19 1222.78 1305.78 1203.07 1324.74" stroke="#0D6EFD" stroke-miterlimit="10"/>
<path d="M1219.6 1383.83C1210.67 1383.98 1201.8 1382.3 1193.54 1378.89C1185.3 1375.27 1177.63 1369.81 1176.88 1361.25C1176.68 1358.51 1176.94 1355.76 1177.63 1353.09C1190.41 1354.37 1203.02 1347.5 1214.62 1353.98C1220.97 1357.46 1233.05 1366.19 1234.86 1372.85C1237.2 1381.76 1227.98 1383.56 1219.6 1383.83Z" fill="#0D6EFD"/>
<path d="M1164.13 1367.07C1157.2 1365.76 1150.63 1363.01 1144.82 1359C1139.35 1354.59 1135.56 1348.29 1135.12 1336.96C1134.68 1327.52 1139.27 1316.85 1147.95 1315.17C1150.74 1314.85 1153.56 1315.35 1156.07 1316.61C1158.58 1317.87 1160.66 1319.84 1162.06 1322.27C1164.88 1327.06 1166.76 1332.34 1167.57 1337.84C1168.62 1343.52 1168.86 1349.33 1168.28 1355.08C1167.48 1359.25 1166.08 1363.29 1164.13 1367.07V1367.07Z" fill="#0D6EFD"/>
<path d="M1203.07 1324.74C1193.09 1334.24 1183.65 1344.3 1174.8 1354.86C1170.3 1360.27 1166.17 1365.98 1162.46 1371.97C1160.7 1375.05 1158.8 1378.01 1157.21 1381.18L1152.8 1390.71" stroke="#0D6EFD" stroke-miterlimit="10"/>
<path d="M1193.41 1435.77C1185.5 1439.88 1176.88 1442.45 1168.01 1443.35C1158.89 1444.23 1149.72 1442.56 1145.09 1435.37C1143.67 1433.03 1142.62 1430.49 1141.96 1427.83C1147.67 1425.07 1153.08 1421.71 1158.09 1417.82C1163.02 1414.13 1169.06 1412.25 1175.2 1412.49C1182.34 1412.97 1196.94 1416.46 1201.66 1421.09C1204.83 1424.22 1204.61 1426.82 1202.63 1429.15C1200.02 1431.94 1196.89 1434.19 1193.41 1435.77V1435.77Z" fill="#0D6EFD"/>
<path d="M1136.27 1446.09C1121.94 1448.64 1108.09 1449.75 1096.58 1432.59C1091.87 1425.32 1090.81 1413.24 1098 1407.42C1100.27 1405.75 1103.01 1404.82 1105.84 1404.76C1108.66 1404.71 1111.44 1405.53 1113.78 1407.11C1118.48 1410.19 1122.55 1414.14 1125.77 1418.75C1129.29 1423.34 1132.19 1428.38 1134.37 1433.74C1135.62 1437.74 1136.26 1441.9 1136.27 1446.09V1446.09Z" fill="#0D6EFD"/>
<path d="M1152.63 1390.71C1147.16 1403.56 1143.01 1416.92 1140.24 1430.61C1137.42 1444.17 1135.65 1457.92 1134.94 1471.75" stroke="#0D6EFD" stroke-miterlimit="10"/>
<path d="M1187.68 1503.41C1181.37 1509.91 1173.73 1514.98 1165.28 1518.27C1156.46 1521.53 1147.64 1522.1 1141.03 1516.41C1139.03 1514.54 1137.33 1512.37 1136 1509.98C1146.28 1502.17 1150.47 1488.28 1163.43 1485.11C1170.44 1483.3 1185.21 1481.45 1191.12 1484.89C1198.79 1489.3 1193.46 1497.06 1187.68 1503.41Z" fill="#0D6EFD"/>
<path d="M1135.17 1528.98C1122.16 1534.98 1108.71 1539.12 1093.59 1526.03C1087.1 1520.52 1083.22 1509.84 1088.21 1502.92C1090.06 1500.82 1092.46 1499.29 1095.15 1498.51C1097.84 1497.73 1100.69 1497.73 1103.37 1498.51C1108.71 1500.03 1113.72 1502.52 1118.15 1505.88C1122.81 1509.2 1126.95 1513.21 1130.4 1517.78C1132.63 1521.21 1134.24 1525 1135.17 1528.98V1528.98Z" fill="#0D6EFD"/>
<path d="M1134.94 1471.75C1133.46 1499.31 1135.15 1526.94 1139.97 1554.11" stroke="#0D6EFD" stroke-miterlimit="10"/>
<path d="M1300.16 1466.9C1282.74 1472.28 1256.64 1466.24 1254.88 1448.69C1254.68 1445.86 1254.85 1443.01 1255.41 1440.22C1268.63 1440.53 1280.85 1430.52 1293.81 1433.74C1300.87 1435.64 1315.15 1440.71 1317.62 1447.85C1320.84 1457.51 1309.68 1464.16 1300.16 1466.9Z" fill="#0D6EFD"/>
<path d="M1241.78 1454.38C1227.85 1449.97 1216.16 1443.09 1213.08 1424.17C1211.75 1416.19 1214.36 1406.93 1221.9 1405.43C1224.6 1405.16 1227.33 1405.56 1229.85 1406.58C1232.37 1407.6 1234.6 1409.22 1236.36 1411.3C1239.95 1415.47 1242.55 1420.4 1243.99 1425.72C1245.69 1431.17 1246.37 1436.9 1245.97 1442.6C1245.31 1446.75 1243.89 1450.74 1241.78 1454.38V1454.38Z" fill="#0D6EFD"/>
<path d="M1276.35 1406.84C1262.11 1431.14 1243.94 1453.41 1226.66 1476.51" stroke="#0D6EFD" stroke-miterlimit="10"/>
<path d="M1249.89 1535.07C1240.86 1537.06 1231.48 1536.89 1222.51 1534.58C1213.47 1532.16 1205.8 1527.26 1204.26 1518.53C1203.82 1515.71 1203.82 1512.84 1204.26 1510.02C1217.49 1509.45 1229.48 1500.01 1242.09 1504.42C1248.97 1506.8 1262.42 1513.24 1264.97 1519.99C1268.28 1528.8 1258.54 1532.91 1249.89 1535.07Z" fill="#0D6EFD"/>
<path d="M1191.69 1525.81C1177.32 1523.16 1164.13 1519.02 1160.12 1498.38C1159.32 1493.82 1159.76 1489.13 1161.4 1484.8C1162.12 1482.73 1163.28 1480.85 1164.8 1479.28C1166.33 1477.71 1168.18 1476.5 1170.22 1475.72C1172.94 1475.04 1175.79 1475.17 1178.44 1476.09C1181.08 1477 1183.4 1478.67 1185.12 1480.88C1188.62 1485.27 1191.16 1490.34 1192.57 1495.78C1194.28 1501.43 1195.11 1507.3 1195.04 1513.2C1194.6 1517.55 1193.47 1521.81 1191.69 1525.81Z" fill="#0D6EFD"/>
<path d="M1226.66 1476.42C1208.54 1499.36 1192.97 1524.19 1180.23 1550.5" stroke="#0D6EFD" stroke-miterlimit="10"/>
<path d="M1600.83 971.648C1598.91 961.313 1600.92 950.634 1606.47 941.709C1607.14 940.871 1616.88 929.01 1620.19 929.319C1627.53 932.995 1633.41 939.037 1636.9 946.471C1641.03 954.245 1642.76 963.066 1641.88 971.824C1640.87 980.025 1632.71 995.678 1621.69 996.34C1610.66 997.001 1602.29 979.188 1600.83 971.648Z" fill="#0D6EFD"/>
<path d="M1331.95 182.783H485.369V1308.08H1331.95V182.783Z" fill="white"/>
<path d="M1332.17 1310.28H485.59C485.005 1310.28 484.444 1310.05 484.031 1309.64C483.617 1309.22 483.385 1308.66 483.385 1308.08V182.783C483.385 182.198 483.617 181.637 484.031 181.224C484.444 180.81 485.005 180.578 485.59 180.578H1332.17C1332.76 180.578 1333.32 180.81 1333.73 181.224C1334.14 181.637 1334.38 182.198 1334.38 182.783V1308.08C1334.38 1308.66 1334.14 1309.22 1333.73 1309.64C1333.32 1310.05 1332.76 1310.28 1332.17 1310.28ZM487.794 1305.87H1329.97V184.987H487.794V1305.87Z" fill="#263238"/>
<path d="M1222.47 762.604H578.096V789.059H1222.47V762.604Z" fill="#263238"/>
<path d="M1222.47 429.394H697.544V455.85H1222.47V429.394Z" fill="#263238"/>
<path d="M1222.47 596.021H578.096V622.476H1222.47V596.021Z" fill="#263238"/>
<path d="M1056.9 1095.77C1048.7 1104.59 1040.32 1113.41 1031.77 1122.22H578.185V1095.77H1056.9Z" fill="#263238"/>
<path d="M1183.49 929.187C1177.85 938.005 1172.07 946.824 1166.07 955.642H578.185V929.187H1183.49Z" fill="#263238"/>
<path d="M805.968 1277.7C805.968 1277.7 768.313 1295.99 662.843 1305.87H487.574" stroke="#263238" stroke-linecap="round" stroke-linejoin="round"/>
<path d="M1313.61 665.114C1320.13 655.333 1324.07 644.064 1325.07 632.353C1326.4 617.626 1327.37 600.474 1327.67 590.024L1329.35 532.307V656.296L1313.61 665.114Z" fill="#263238"/>
<path d="M1324.41 651.181C1324.41 656.56 1275.12 786.546 1183.31 928.966C1177.67 937.785 1171.89 946.603 1165.9 955.422C1133 1004.75 1096.51 1051.59 1056.72 1095.55C1048.52 1104.37 1040.15 1113.19 1031.59 1122C966.995 1187.53 892.567 1243.3 809.187 1275.27C813.949 1272.85 886.57 1236.2 902.399 1122C903.575 1113.63 904.413 1104.81 904.913 1095.55C907.029 1056.92 902.884 1010.63 888.863 955.422C886.687 946.838 884.262 938.02 881.587 928.966C861.217 860.137 826.207 778.565 770.429 682.046L756.055 650.74L849.973 677.196C1269.43 774.597 1324.19 650.74 1324.19 650.74C1324.19 650.74 1324.41 651.093 1324.41 651.181Z" fill="white" stroke="#263238" stroke-linecap="round" stroke-linejoin="round"/>
<path d="M963.512 1043.56C963.805 1051.37 963.629 1059.19 962.983 1066.98Z" fill="white"/>
<path d="M963.512 1043.56C963.805 1051.37 963.629 1059.19 962.983 1066.98" stroke="#263238" stroke-linecap="round" stroke-linejoin="round"/>
<path d="M862.628 743.335C923.564 822.261 954.297 955.642 962.321 1018.92Z" fill="white"/>
<path d="M862.628 743.335C923.564 822.261 954.297 955.642 962.321 1018.92" stroke="#263238" stroke-linecap="round" stroke-linejoin="round"/>
<path d="M587.532 305.449C581.592 305.636 575.675 304.628 570.133 302.485C564.59 300.341 559.535 297.105 555.267 292.97C550.999 288.834 547.606 283.883 545.288 278.411C542.971 272.939 541.776 267.057 541.776 261.114C541.776 255.171 542.971 249.289 545.288 243.816C547.606 238.344 550.999 233.393 555.267 229.258C559.535 225.122 564.59 221.887 570.133 219.743C575.675 217.599 581.592 216.591 587.532 216.778C589.286 216.778 590.969 217.475 592.209 218.716C593.449 219.956 594.146 221.638 594.146 223.392C594.146 225.146 593.449 226.829 592.209 228.069C590.969 229.309 589.286 230.006 587.532 230.006C581.364 229.954 575.32 231.735 570.166 235.123C565.012 238.512 560.981 243.355 558.584 249.039C556.188 254.722 555.533 260.989 556.704 267.045C557.875 273.101 560.819 278.672 565.162 283.052C569.505 287.433 575.051 290.424 581.097 291.646C587.142 292.869 593.415 292.268 599.119 289.92C604.822 287.572 609.7 283.582 613.132 278.458C616.564 273.333 618.397 267.304 618.397 261.136C618.397 259.382 619.094 257.699 620.334 256.459C621.575 255.219 623.257 254.522 625.011 254.522C626.765 254.522 628.448 255.219 629.688 256.459C630.928 257.699 631.625 259.382 631.625 261.136C631.614 272.847 626.972 284.078 618.711 292.38C610.451 300.681 599.243 305.379 587.532 305.449V305.449Z" fill="#263238"/>
<path d="M586.474 287.15C545.953 287.15 543.748 199.582 543.704 182.033V181.504C543.704 163.867 545.776 75.6812 586.474 75.6812C627.172 75.6812 629.994 170.657 630.214 181.504L594.94 182.165C594.869 161.758 591.9 141.463 586.121 121.89C580.931 141.265 578.497 161.274 578.89 181.328V181.857C578.499 202.015 581.024 222.123 586.386 241.558C586.783 240.28 587.18 238.869 587.62 237.149L590.398 227.581L615.002 234.768C616.222 235.123 617.36 235.714 618.351 236.51C619.341 237.305 620.165 238.287 620.776 239.401C621.386 240.516 621.77 241.739 621.907 243.002C622.044 244.265 621.93 245.543 621.572 246.761V246.761C614.429 273.526 602.568 287.15 586.474 287.15Z" fill="#BFBFBF" stroke="#263238" stroke-linecap="round" stroke-linejoin="round"/>
<path d="M625.232 267.75C623.478 267.75 621.795 267.053 620.555 265.812C619.315 264.572 618.618 262.89 618.618 261.136C618.618 252.925 615.375 245.047 609.594 239.217C603.813 233.386 595.963 230.076 587.753 230.006C585.999 230.006 584.316 229.309 583.076 228.069C581.836 226.829 581.139 225.146 581.139 223.392C581.139 221.638 581.836 219.956 583.076 218.715C584.316 217.475 585.999 216.778 587.753 216.778C599.468 216.86 610.675 221.568 618.934 229.876C627.193 238.185 631.834 249.421 631.846 261.136C631.846 262.89 631.149 264.572 629.908 265.812C628.668 267.053 626.986 267.75 625.232 267.75V267.75Z" fill="#263238"/>
<path d="M796.532 305.449C785.016 305.086 774.093 300.256 766.075 291.981C758.057 283.706 753.573 272.636 753.573 261.114C753.573 249.591 758.057 238.521 766.075 230.247C774.093 221.972 785.016 217.142 796.532 216.778C798.287 216.778 799.969 217.475 801.209 218.715C802.449 219.956 803.146 221.638 803.146 223.392C803.146 225.146 802.449 226.829 801.209 228.069C799.969 229.309 798.287 230.006 796.532 230.006C790.376 230.006 784.357 231.832 779.238 235.252C774.118 238.673 770.129 243.535 767.772 249.223C765.416 254.911 764.8 261.17 766.001 267.209C767.202 273.247 770.167 278.794 774.52 283.148C778.874 287.501 784.421 290.466 790.459 291.667C796.498 292.868 802.757 292.252 808.445 289.896C814.133 287.54 818.995 283.55 822.416 278.43C825.836 273.311 827.662 267.293 827.662 261.136C827.662 259.382 828.359 257.699 829.599 256.459C830.839 255.219 832.522 254.522 834.276 254.522C836.03 254.522 837.712 255.219 838.953 256.459C840.193 257.699 840.89 259.382 840.89 261.136C840.866 272.889 836.184 284.153 827.869 292.46C819.555 300.766 808.285 305.437 796.532 305.449Z" fill="#263238"/>
<path d="M795.518 287.15C754.997 287.15 752.748 199.582 752.748 182.033V181.504C752.748 163.867 754.776 75.6812 795.518 75.6812C836.26 75.6812 839.038 170.657 839.258 181.504L803.984 182.165C803.917 161.757 800.948 141.462 795.166 121.89C789.995 141.268 787.575 161.276 787.978 181.328V181.857C787.589 202.101 790.113 222.297 795.474 241.823C795.915 240.544 796.312 239.133 796.753 237.414L799.531 227.846L824.134 235.033C825.354 235.387 826.492 235.979 827.483 236.774C828.474 237.569 829.298 238.552 829.908 239.666C830.518 240.78 830.903 242.004 831.04 243.267C831.176 244.53 831.062 245.807 830.704 247.026C823.473 273.526 811.612 287.15 795.518 287.15Z" fill="#BFBFBF" stroke="#263238" stroke-linecap="round" stroke-linejoin="round"/>
<path d="M834.276 267.75C832.522 267.75 830.839 267.053 829.599 265.812C828.359 264.572 827.662 262.89 827.662 261.136C827.65 252.883 824.367 244.972 818.531 239.137C812.696 233.301 804.785 230.018 796.532 230.006C794.778 230.006 793.096 229.309 791.856 228.069C790.615 226.829 789.918 225.146 789.918 223.392C789.918 221.638 790.615 219.956 791.856 218.715C793.096 217.475 794.778 216.778 796.532 216.778C808.293 216.79 819.569 221.467 827.885 229.783C836.201 238.099 840.878 249.375 840.89 261.136C840.89 262.89 840.193 264.572 838.953 265.812C837.712 267.053 836.03 267.75 834.276 267.75V267.75Z" fill="#263238"/>
<path d="M1005.58 305.449C994.06 305.086 983.137 300.256 975.119 291.981C967.101 283.706 962.617 272.636 962.617 261.114C962.617 249.591 967.101 238.521 975.119 230.247C983.137 221.972 994.06 217.142 1005.58 216.778C1007.33 216.778 1009.01 217.475 1010.25 218.715C1011.49 219.956 1012.19 221.638 1012.19 223.392C1012.19 225.146 1011.49 226.829 1010.25 228.069C1009.01 229.309 1007.33 230.006 1005.58 230.006C999.42 230.006 993.401 231.832 988.282 235.252C983.163 238.673 979.173 243.535 976.817 249.223C974.46 254.911 973.844 261.17 975.045 267.209C976.246 273.247 979.211 278.794 983.565 283.148C987.918 287.501 993.465 290.466 999.504 291.667C1005.54 292.868 1011.8 292.252 1017.49 289.896C1023.18 287.54 1028.04 283.55 1031.46 278.43C1034.88 273.311 1036.71 267.293 1036.71 261.136C1036.71 259.382 1037.4 257.699 1038.64 256.459C1039.88 255.219 1041.57 254.522 1043.32 254.522C1045.07 254.522 1046.76 255.219 1048 256.459C1049.24 257.699 1049.93 259.382 1049.93 261.136C1049.91 272.889 1045.23 284.153 1036.91 292.46C1028.6 300.766 1017.33 305.437 1005.58 305.449Z" fill="#263238"/>
<path d="M1004.52 287.15C963.997 287.15 961.792 199.582 961.748 182.033V181.504C961.748 163.867 963.821 75.6812 1004.52 75.6812C1045.22 75.6812 1048.08 170.657 1048.26 181.504L1012.98 182.165C1012.91 161.758 1009.94 141.463 1004.17 121.89C999.003 141.328 996.613 161.398 997.067 181.504V182.033C996.676 202.191 999.2 222.299 1004.56 241.735C1004.96 240.456 1005.4 239.045 1005.8 237.326L1008.62 227.757L1033.18 234.945C1034.4 235.299 1035.54 235.891 1036.53 236.686C1037.52 237.481 1038.34 238.464 1038.95 239.578C1039.56 240.692 1039.95 241.916 1040.08 243.178C1040.22 244.441 1040.11 245.719 1039.75 246.938V246.938C1032.34 273.526 1020.66 287.15 1004.52 287.15Z" fill="#BFBFBF" stroke="#263238" stroke-linecap="round" stroke-linejoin="round"/>
<path d="M1043.32 267.75C1041.57 267.75 1039.88 267.053 1038.64 265.812C1037.4 264.572 1036.71 262.89 1036.71 261.136C1036.69 252.883 1033.41 244.972 1027.58 239.137C1021.74 233.301 1013.83 230.018 1005.58 230.006C1003.82 230.006 1002.14 229.309 1000.9 228.069C999.66 226.829 998.963 225.146 998.963 223.392C998.963 221.638 999.66 219.956 1000.9 218.715C1002.14 217.475 1003.82 216.778 1005.58 216.778C1017.34 216.778 1028.63 221.45 1036.96 229.768C1045.28 238.085 1049.97 249.367 1049.98 261.136C1049.97 262.894 1049.26 264.576 1048.01 265.815C1046.77 267.054 1045.08 267.75 1043.32 267.75V267.75Z" fill="#263238"/>
<path d="M1214.62 305.449C1208.68 305.636 1202.76 304.628 1197.22 302.485C1191.68 300.341 1186.62 297.105 1182.36 292.97C1178.09 288.834 1174.69 283.883 1172.38 278.411C1170.06 272.939 1168.86 267.057 1168.86 261.114C1168.86 255.171 1170.06 249.289 1172.38 243.816C1174.69 238.344 1178.09 233.393 1182.36 229.258C1186.62 225.122 1191.68 221.887 1197.22 219.743C1202.76 217.599 1208.68 216.591 1214.62 216.778C1216.37 216.778 1218.06 217.475 1219.3 218.716C1220.54 219.956 1221.23 221.638 1221.23 223.392C1221.23 225.146 1220.54 226.829 1219.3 228.069C1218.06 229.309 1216.37 230.006 1214.62 230.006C1208.46 229.998 1202.44 231.816 1197.31 235.231C1192.19 238.646 1188.19 243.505 1185.83 249.192C1183.47 254.88 1182.84 261.14 1184.04 267.182C1185.24 273.223 1188.2 278.774 1192.55 283.132C1196.9 287.49 1202.45 290.459 1208.49 291.664C1214.53 292.869 1220.79 292.255 1226.48 289.9C1232.17 287.545 1237.03 283.555 1240.46 278.435C1243.88 273.315 1245.71 267.295 1245.71 261.136C1245.71 259.382 1246.4 257.699 1247.64 256.459C1248.88 255.219 1250.57 254.522 1252.32 254.522C1254.07 254.522 1255.76 255.219 1257 256.459C1258.24 257.699 1258.93 259.382 1258.93 261.136C1258.92 272.885 1254.25 284.149 1245.94 292.457C1237.63 300.765 1226.37 305.437 1214.62 305.449V305.449Z" fill="#263238"/>
<path d="M1213.56 287.15C1173.04 287.15 1170.84 199.582 1170.79 182.033V181.504C1170.79 163.867 1172.86 75.6812 1213.56 75.6812C1254.26 75.6812 1257.21 170.834 1257.21 181.68L1221.94 182.342C1221.85 161.936 1218.88 141.644 1213.12 122.067C1207.91 141.436 1205.47 161.449 1205.89 181.504V182.033C1205.56 202.225 1208.13 222.36 1213.52 241.823C1213.96 240.544 1214.36 239.133 1214.8 237.414L1217.57 227.846L1242.18 235.033C1243.4 235.387 1244.54 235.979 1245.53 236.774C1246.52 237.569 1247.34 238.552 1247.95 239.666C1248.56 240.78 1248.95 242.004 1249.08 243.267C1249.22 244.53 1249.11 245.807 1248.75 247.026V247.026C1241.52 273.526 1229.66 287.15 1213.56 287.15Z" fill="#BFBFBF" stroke="#263238" stroke-linecap="round" stroke-linejoin="round"/>
<path d="M1252.32 267.75C1250.57 267.75 1248.88 267.053 1247.64 265.812C1246.4 264.572 1245.71 262.89 1245.71 261.136C1245.71 252.887 1242.43 244.976 1236.6 239.139C1230.78 233.303 1222.87 230.018 1214.62 230.006C1212.87 230.006 1211.18 229.309 1209.94 228.069C1208.7 226.829 1208.01 225.146 1208.01 223.392C1208.01 221.638 1208.7 219.956 1209.94 218.715C1211.18 217.475 1212.87 216.778 1214.62 216.778C1226.37 216.802 1237.64 221.484 1245.94 229.799C1254.25 238.114 1258.92 249.383 1258.93 261.136C1258.93 262.89 1258.24 264.572 1257 265.812C1255.76 267.053 1254.07 267.75 1252.32 267.75Z" fill="#263238"/>
<path d="M1444.71 1295.31C1465.19 1206.24 1409.59 1117.43 1320.52 1096.95C1231.45 1076.47 1142.65 1132.07 1122.16 1221.14C1101.68 1310.21 1157.28 1399.01 1246.35 1419.49C1335.42 1439.98 1424.23 1384.37 1444.71 1295.31Z" fill="#0D6EFD" stroke="#263238" stroke-miterlimit="10"/>
<path d="M1380.01 1258.3C1380.02 1260.32 1379.62 1262.33 1378.85 1264.21C1378.08 1266.08 1376.94 1267.79 1375.51 1269.22C1374.07 1270.65 1372.37 1271.79 1370.49 1272.56C1368.62 1273.34 1366.61 1273.73 1364.58 1273.73H1298.93V1339.43C1298.93 1343.52 1297.3 1347.44 1294.41 1350.34C1291.51 1353.23 1287.59 1354.86 1283.49 1354.86C1279.4 1354.86 1275.48 1353.23 1272.58 1350.34C1269.69 1347.44 1268.06 1343.52 1268.06 1339.43V1273.6H1202.41C1198.31 1273.6 1194.39 1271.97 1191.49 1269.08C1188.6 1266.18 1186.97 1262.26 1186.97 1258.16C1186.97 1254.07 1188.6 1250.14 1191.49 1247.25C1194.39 1244.36 1198.31 1242.73 1202.41 1242.73H1268.06V1177.21C1268.06 1173.12 1269.69 1169.19 1272.58 1166.3C1275.48 1163.4 1279.4 1161.78 1283.49 1161.78C1287.59 1161.78 1291.51 1163.4 1294.41 1166.3C1297.3 1169.19 1298.93 1173.12 1298.93 1177.21V1242.73H1364.58C1366.62 1242.73 1368.64 1243.13 1370.52 1243.92C1372.4 1244.7 1374.11 1245.85 1375.54 1247.3C1376.97 1248.74 1378.11 1250.46 1378.88 1252.35C1379.64 1254.24 1380.03 1256.26 1380.01 1258.3V1258.3Z" fill="white"/>
<path d="M489.999 717.144C489.999 717.144 503.579 795.188 500.978 804.889C498.377 811.761 493.768 817.692 487.75 821.908L518.174 894.221V837.65C518.174 837.65 526.552 706.694 527.566 648.05C527.997 618.939 526.863 589.825 524.171 560.835L509.752 563.172C509.752 563.172 493.218 685.706 489.999 717.144Z" fill="white" stroke="#263238" stroke-linecap="round" stroke-linejoin="round"/>
<path d="M426.417 1665.67L417.951 1603.41L361.733 1599L368.303 1667.04C376.577 1673.74 386.965 1677.28 397.611 1677.03C408.257 1676.78 418.467 1672.75 426.417 1665.67V1665.67Z" fill="white" stroke="#263238" stroke-linecap="round" stroke-linejoin="round"/>
<path d="M364.643 1659.14C362.791 1674.49 360.983 1690.63 365.393 1705.31C369.802 1719.99 382.721 1732.38 395.42 1728.77C398.33 1727.97 401.108 1726.34 404.238 1725.81C409.882 1724.84 415.438 1727.84 420.729 1730.44C452.829 1746.27 536.517 1739.48 543.131 1736C545.039 1734.85 546.591 1733.19 547.614 1731.22C548.638 1729.24 549.093 1727.02 548.928 1724.79C548.764 1722.57 547.986 1720.44 546.682 1718.64C545.379 1716.83 543.6 1715.42 541.543 1714.57C503.139 1696.36 505.608 1700.94 442.202 1665.01C430.826 1658.57 424.08 1661.66 418.348 1667.57C414.587 1671.25 410.017 1674 405.002 1675.6C399.988 1677.21 394.669 1677.62 389.469 1676.8C384.268 1675.98 379.331 1673.96 375.052 1670.89C370.772 1667.83 367.268 1663.8 364.819 1659.14H364.643Z" fill="#263238"/>
<path d="M422.713 1524.92C394.009 1560.6 358.073 1606.28 358.073 1606.28L332.146 1550.45C332.146 1550.45 392.377 1478.94 423.286 1403.49C423.286 1418.26 424.477 1434.36 424.874 1443.57C425.932 1471.44 423.154 1497.19 422.713 1524.92Z" fill="#263238"/>
<path d="M361.777 1676.03C361.644 1678.39 360.71 1680.63 359.131 1682.38C354.193 1686.79 348.725 1678.81 344.581 1673.56C331.842 1656.63 320.362 1638.78 310.232 1620.17L307.014 1591.46L297.578 1595.38H296.387L293.653 1590.58C272.753 1554.07 297.71 1546.97 324.298 1548.16C327.34 1548.16 333.69 1548.96 343.919 1568.58C346.67 1573.1 349.13 1577.8 351.283 1582.64C363.139 1612.26 366.765 1644.52 361.777 1676.03V1676.03Z" fill="#263238"/>
<path d="M525.935 924.689C524.949 908.849 524.802 892.968 525.494 877.113C525.784 864.75 523.212 852.487 517.981 841.282C512.749 830.077 504.998 820.232 495.334 812.517C495.334 812.517 472.229 843.382 406.222 843.382H402.916C373.518 842.672 344.367 837.833 316.317 829.007C304.428 825.285 292.767 820.868 281.396 815.779C281.396 815.779 282.718 903.965 285.496 985.934C287.877 1050.97 304.633 1343.09 315.215 1436.03C324.033 1513.46 350.225 1589.92 353.355 1622.94C354.854 1638.51 389.996 1633.66 406.796 1627.66C428.842 1619.77 430.385 1615.09 430.385 1615.09C431.84 1591.11 425.447 1548.96 425.976 1525.1C486.119 1450.14 579.684 1331.53 582.329 1313.23C602.744 1171.08 528.139 939.416 525.935 924.689ZM468.393 1290.66C466.85 1300.27 446.876 1350.63 424.301 1405.61C424.301 1381.27 435.059 1355.92 438.234 1316.63C444.275 1241.06 428.93 1157.9 431.091 1097.18C443.305 1149.39 471.215 1272.63 468.393 1290.48V1290.66Z" fill="#263238"/>
<path d="M562.796 1335.59C553.172 1343.78 541.937 1349.87 529.815 1353.45" stroke="#BFBFBF" stroke-linecap="round" stroke-linejoin="round"/>
<path d="M576.289 1321.35C574.393 1323.85 572.362 1326.25 570.204 1328.54" stroke="#BFBFBF" stroke-linecap="round" stroke-linejoin="round"/>
<path d="M444.716 870.234C450.756 902.378 451.726 945.809 438.543 975.704C435.25 980.822 431.324 985.504 426.858 989.638" stroke="#BFBFBF" stroke-linecap="round" stroke-linejoin="round"/>
<path d="M340.568 866.795C336.997 882.227 330.559 907.669 322.181 921.117C314.145 935.004 300.941 945.149 285.452 949.337" stroke="#BFBFBF" stroke-linecap="round" stroke-linejoin="round"/>
<path d="M421.964 899.335C426.593 951.453 426.373 1002.03 431.355 1089.64" stroke="#BFBFBF" stroke-linecap="round" stroke-linejoin="round"/>
<path d="M419.142 872.351C419.627 876.495 420.112 880.596 420.553 884.652" stroke="white" stroke-linecap="round" stroke-linejoin="round"/>
<path d="M468.614 1276.42C471.619 1297.88 477.693 1318.81 486.648 1338.54" stroke="#BFBFBF" stroke-linecap="round" stroke-linejoin="round"/>
<path d="M472.362 1296.61C468.492 1327.2 470.18 1358.24 477.344 1388.24" stroke="#BFBFBF" stroke-linecap="round" stroke-linejoin="round"/>
<path d="M299.033 944.046C307.102 1064.24 318.301 1155.69 327.252 1246.96" stroke="#BFBFBF" stroke-linecap="round" stroke-linejoin="round"/>
<path d="M327.561 1278.67C327.561 1274.92 327.561 1271.08 327.561 1267.25" stroke="#BFBFBF" stroke-linecap="round" stroke-linejoin="round"/>
<path d="M379.15 1631.28C372.932 1612.01 329.986 1463.72 327.958 1402.21C326.591 1361.43 324.959 1332.37 327.032 1292.95" stroke="#BFBFBF" stroke-linecap="round" stroke-linejoin="round"/>
<path d="M427.872 1391.72L426.329 1524.48" stroke="#BFBFBF" stroke-linecap="round" stroke-linejoin="round"/>
<path d="M515.22 478.249C504.902 425.337 469.76 418.459 461.779 415.946C406.796 398.617 369.184 395.707 325.709 414.755C274.782 437.154 264.552 437.948 248.855 496.062C240.037 527.853 257.365 634.911 267.683 681.517C275.928 718.599 273.856 814.677 289.729 830.066C319.183 858.594 360.939 854.493 401.328 847.35C436.294 841.133 494.673 832.844 507.945 799.906C509.841 795.188 509.664 775.258 509.003 746.51C506.886 659.515 512.707 609.601 511.825 553.912L523.642 548.445C523.642 548.445 524.656 526.442 515.22 478.249Z" fill="#0D6EFD"/>
<path opacity="0.2" d="M260.716 591.391C262.259 609.381 256.307 628.693 264.111 644.875C266.169 649.464 269.543 653.338 273.806 656.007C278.068 658.676 283.027 660.019 288.054 659.867C294.315 659.206 300.223 655.458 306.484 656.163C314.509 657.001 320.021 664.365 324.739 670.934C334.605 686.148 347.244 699.37 361.997 709.912C377.121 719.833 396.346 724.816 413.674 719.613C409.096 727.105 403.936 734.226 398.242 740.91C407.854 737.338 429.107 721.862 447.714 721.773L507.107 721.377C510.943 708.942 502.036 695.318 490.219 689.806C478.402 684.294 464.734 685 451.814 686.764C438.895 688.527 425.844 691.173 412.969 689.409C395.725 686.157 380.194 676.891 369.14 663.262C358.228 649.699 348.949 634.9 341.494 619.169C338.275 625.254 329.369 626.004 323.372 622.697C317.707 618.801 312.978 613.695 309.527 607.749C297.754 591.126 275.223 563.436 254.455 558.938C251.016 567.801 259.878 581.602 260.716 591.391Z" fill="black"/>
<path opacity="0.2" d="M443.305 679.709C466.321 670.89 481.754 648.05 488.412 624.24C492.38 609.866 501.331 570.403 491.366 558.101C483.914 578.78 478.755 600.21 470.686 620.757C466.541 631.251 462.132 641.613 457.458 651.622C455.077 656.516 448.155 677.813 443.305 679.709Z" fill="black"/>
<path opacity="0.2" d="M277.03 746.818C291.802 782.401 325.841 807.666 362.791 818.557C399.741 829.448 442.775 829.051 480.651 821.908C431.84 849.554 367.112 852.244 314.862 831.829C305.47 828.169 296.123 832.402 289.2 825.039C273.327 808.195 274.032 773.362 275.972 750.081L267.154 750.478" fill="black"/>
<path opacity="0.2" d="M374.167 468.46C375.844 470.979 378.334 472.846 381.222 473.751C382.906 473.919 384.605 473.646 386.151 472.958C387.697 472.27 389.038 471.191 390.04 469.827C392.04 467.053 393.782 464.101 395.243 461.008C399.449 453.536 405.962 447.626 413.806 444.165C418.067 454.409 424.506 463.602 432.678 471.106H435.412C439.68 460.835 440.889 449.551 438.895 438.609C438.518 440.012 437.847 441.32 436.928 442.444C436.008 443.569 434.86 444.486 433.56 445.135C431.488 440.664 428.753 436.531 425.447 432.877C423.774 431.067 421.719 429.654 419.43 428.738C417.142 427.823 414.679 427.429 412.219 427.586C410.14 427.919 408.13 428.589 406.267 429.57C394.009 435.523 385.367 447.207 378.885 458.98C369.773 452.287 360.276 446.133 350.445 440.549C357.72 449.985 366.186 459.112 374.167 468.46Z" fill="black"/>
<path d="M515.22 478.249C504.902 425.337 469.76 418.459 461.779 415.946C406.796 398.617 369.184 395.707 325.709 414.755C274.782 437.154 264.552 437.948 248.855 496.062C240.037 527.853 257.365 634.911 267.683 681.517C275.928 718.599 273.856 814.677 289.729 830.066C319.183 858.594 360.939 854.493 401.328 847.35C436.294 841.133 494.673 832.844 507.945 799.906C509.841 795.188 509.664 775.258 509.003 746.51C506.886 659.515 512.707 609.601 511.825 553.912L523.642 548.445C523.642 548.445 524.656 526.442 515.22 478.249Z" stroke="#263238" stroke-miterlimit="10"/>
<path d="M424.918 404.217C431.536 404.208 437.993 402.17 443.417 398.377C448.841 394.585 452.972 389.221 455.254 383.008C461.603 365.371 464.557 309.197 464.557 298.967C464.557 288.738 456.488 268.102 454.857 256.374C453.225 244.645 446.038 220.217 446.038 220.217L424.653 199.582L395.243 212.016L353.62 217.528C353.62 217.528 345.859 285.034 335.233 274.187C324.607 263.34 292.507 277.274 294.491 302.847C296.475 328.421 329.192 328.069 329.192 328.069C329.192 328.069 337.305 336.049 342.156 362.637C345.189 379.172 345.294 396.112 342.464 412.683C347.707 419.13 354.508 424.133 362.223 427.219C369.939 430.305 378.314 431.373 386.557 430.32C414.732 426.748 417.422 407.612 417.422 407.612C417.422 407.612 417.775 404.393 424.918 404.217Z" fill="white"/>
<path d="M329.677 290.722C323.416 281.903 300.929 267.617 295.461 297.512C289.994 327.407 319.845 325.511 335.498 329.215C347.226 348.748 370.772 381.553 390.614 391.827C402.915 398.22 418.304 405.628 432.81 403.952C447.317 402.277 453.093 393.59 455.915 379.878C459.823 361.468 462.372 342.795 463.543 324.012C464.249 312.063 466.321 296.057 461.471 284.725C454.504 268.367 456.003 249.451 450.668 232.74C445.333 216.029 430.87 203.771 417.466 193.056" stroke="#263238" stroke-linecap="round" stroke-linejoin="round"/>
<path d="M383.426 279.787C392.598 274.099 400.579 271.63 408.295 279.787C410.455 279.787 415.438 270.968 415.438 270.968C413.162 268.194 410.093 266.18 406.643 265.195C403.192 264.21 399.523 264.301 396.125 265.457C382.677 268.719 383.426 279.787 383.426 279.787Z" fill="#263238"/>
<path d="M403.841 346.146C410.147 355.23 416.849 358.007 428.666 356.993" stroke="#263238" stroke-linecap="round" stroke-linejoin="round"/>
<path d="M399.3 293.72C401.328 293.72 403.312 296.763 403.709 300.951C404.106 305.14 402.695 308.668 400.623 308.8C398.55 308.932 396.61 305.713 396.213 301.569C395.817 297.424 397.404 293.897 399.3 293.72Z" fill="#263238"/>
<path d="M444.01 287.812C446.126 287.812 448.111 290.81 448.419 294.999C448.728 299.188 447.449 302.759 445.333 302.936C443.216 303.112 441.276 299.849 440.923 295.704C440.571 291.56 441.938 288.032 444.01 287.812Z" fill="#263238"/>
<path d="M439.072 274.937C439.072 274.937 449.213 269.998 453.269 273.57C453.269 273.57 456.18 263.472 448.507 261.136C446.592 260.34 444.45 260.282 442.496 260.975C440.541 261.667 438.912 263.06 437.925 264.883L438.234 275.774L439.072 274.937Z" fill="#263238"/>
<path d="M418.039 403.335C418.304 403.335 416.143 420.134 409.221 424.852C404.59 428.92 398.629 431.148 392.465 431.113C378.223 432.348 350.048 424.896 342.596 412.683C345.334 400.629 345.767 388.168 343.875 375.953C342.596 360.127 339.731 344.469 335.321 329.215C335.321 329.215 372.227 397.867 418.039 403.335Z" stroke="#263238" stroke-linecap="round" stroke-linejoin="round"/>
<path d="M345.992 400.028C336.291 402.321 328.354 402.85 326.238 409.508C324.827 413.917 328.046 417.797 331.485 421.457C345.784 436.285 362.257 448.849 380.34 458.716C388.272 446.772 398.016 436.136 409.221 427.189C388.27 423.138 368.381 414.808 350.798 402.718L345.992 400.028Z" fill="white" stroke="#263238" stroke-linecap="round" stroke-linejoin="round"/>
<path d="M418.304 404.658C421.144 404.724 423.928 405.457 426.433 406.797C428.937 408.137 431.092 410.048 432.722 412.374C436.867 417.092 440.218 436.449 435.985 448.751C426.549 437.816 420.729 421.281 407.104 425.558C417.775 422.207 418.304 404.658 418.304 404.658Z" fill="white" stroke="#263238" stroke-linecap="round" stroke-linejoin="round"/>
<path d="M344.492 343.236C344.492 343.236 362.394 409.111 382.721 415.372C388.697 417.055 395.031 416.981 400.966 415.159C406.9 413.337 412.185 409.844 416.187 405.099C378.664 392.841 344.492 343.236 344.492 343.236Z" fill="#263238"/>
<path d="M361.468 267.397C349.078 274.937 340.524 297.512 349.431 309.329C358.338 321.146 349.166 328.157 345.022 332.169C341.863 325.869 339.109 319.374 336.776 312.724C334.087 304.876 334.351 297.997 329.942 290.986C327.517 287.106 316.317 280.889 311.864 279.699C305.294 277.935 298.636 285.034 296.519 291.516C295.007 298.19 295.22 305.14 297.137 311.71C288.318 302.23 287.613 299.585 286.731 286.798C286.829 279.818 286.505 272.838 285.761 265.898C284.35 258.666 280.69 251.964 279.72 244.689C278.045 231.858 284.879 219.644 291.493 208.533C297.271 197.498 304.824 187.488 313.848 178.902C322.235 172.314 331.69 167.213 341.803 163.823C364.378 155.313 388.806 149.933 412.66 153.549C436.514 157.165 459.751 171.186 469.981 192.792C473.894 200.046 475.067 208.466 473.288 216.514C472.136 220.567 469.928 224.241 466.889 227.16C463.85 230.079 460.09 232.138 455.993 233.125C451.897 234.112 447.612 233.992 443.577 232.778C439.542 231.563 435.902 229.298 433.031 226.214C437.942 227.444 443.127 226.945 447.714 224.803C449.975 223.693 451.893 221.992 453.267 219.881C454.641 217.77 455.419 215.327 455.518 212.81C455.422 211.15 454.968 209.53 454.186 208.063C453.404 206.595 452.314 205.314 450.99 204.309C449.665 203.303 448.139 202.596 446.516 202.237C444.892 201.877 443.21 201.874 441.585 202.227C440.027 202.788 438.619 203.7 437.471 204.893C436.323 206.087 435.467 207.529 434.967 209.108C434.468 210.687 434.34 212.359 434.593 213.995C434.846 215.632 435.473 217.188 436.426 218.542L428.798 214.706L427.96 219.776L419.142 213.559L418.48 217.969C414.424 216.337 385.94 217.969 376.195 219.027C371.31 219.503 366.481 220.448 361.777 221.849C356.486 223.436 354.987 223.965 354.017 229.521C351.283 245.527 347.888 258.446 361.468 267.397Z" fill="#263238"/>
<path d="M364.863 188.47C364.037 189.226 363.395 190.161 362.986 191.204C362.578 192.247 362.415 193.369 362.508 194.485C362.602 195.601 362.95 196.681 363.527 197.641C364.103 198.601 364.892 199.416 365.833 200.023" stroke="#BFBFBF" stroke-linecap="round" stroke-linejoin="round"/>
<path d="M373.814 190.411C373.257 191.23 372.959 192.198 372.959 193.189C372.959 194.179 373.257 195.147 373.814 195.966" stroke="#BFBFBF" stroke-linecap="round" stroke-linejoin="round"/>
<path d="M383.03 190.366C382.545 192.174 382.015 194.026 381.486 195.834" stroke="#BFBFBF" stroke-linecap="round" stroke-linejoin="round"/>
<path d="M406.222 185.869C404.455 187.216 403.132 189.062 402.425 191.169C401.718 193.275 401.658 195.545 402.254 197.686" stroke="#BFBFBF" stroke-linecap="round" stroke-linejoin="round"/>
<path d="M412.307 198.568C412.018 195.739 412.786 192.904 414.463 190.608C416.14 188.312 418.608 186.718 421.39 186.134" stroke="#BFBFBF" stroke-linecap="round" stroke-linejoin="round"/>
<path d="M420.729 199.494C422.648 195.499 425.648 192.121 429.389 189.744C433.13 187.368 437.462 186.086 441.894 186.045" stroke="#BFBFBF" stroke-linecap="round" stroke-linejoin="round"/>
<path d="M428.004 203.374C429.52 200.768 431.62 198.551 434.14 196.896C436.66 195.242 439.53 194.196 442.523 193.841C445.517 193.486 448.552 193.832 451.389 194.851C454.225 195.87 456.786 197.535 458.869 199.714" stroke="#BFBFBF" stroke-linecap="round" stroke-linejoin="round"/>
<path d="M340.7 196.892C340.11 197.773 339.721 198.772 339.563 199.82C339.404 200.868 339.479 201.938 339.782 202.954C340.086 203.97 340.61 204.906 341.318 205.695C342.025 206.484 342.899 207.107 343.875 207.519" stroke="#BFBFBF" stroke-linecap="round" stroke-linejoin="round"/>
<path d="M353.884 183.664C351.316 187.93 350.421 192.997 351.374 197.885C352.327 202.772 355.06 207.132 359.043 210.12" stroke="#BFBFBF" stroke-linecap="round" stroke-linejoin="round"/>
<path d="M329.413 204.344C329.177 205.069 329.108 205.838 329.213 206.593C329.318 207.348 329.594 208.069 330.018 208.702C330.443 209.335 331.006 209.863 331.665 210.246C332.324 210.629 333.062 210.858 333.822 210.914" stroke="#BFBFBF" stroke-linecap="round" stroke-linejoin="round"/>
<path d="M319.36 210.605C319.105 211.575 319.228 212.606 319.702 213.489C320.177 214.372 320.968 215.043 321.917 215.367" stroke="#BFBFBF" stroke-linecap="round" stroke-linejoin="round"/>
<path d="M310.453 216.866C310.352 217.141 310.311 217.434 310.333 217.725C310.356 218.017 310.442 218.3 310.584 218.556C310.726 218.811 310.922 219.033 311.159 219.205C311.395 219.378 311.665 219.498 311.952 219.556" stroke="#BFBFBF" stroke-linecap="round" stroke-linejoin="round"/>
<path d="M493.879 544.256C496.04 620.051 486.957 699.33 396.875 741.262" stroke="#263238" stroke-linecap="round" stroke-linejoin="round"/>
<path d="M359.969 775.831C399.22 786.548 440.193 789.455 480.563 784.385" stroke="#263238" stroke-linecap="round" stroke-linejoin="round"/>
<path d="M328.884 765.558C334.043 767.542 339.245 769.438 344.493 771.157" stroke="#263238" stroke-linecap="round" stroke-linejoin="round"/>
<path d="M804.381 664.232C804.546 662.37 804.261 660.495 803.551 658.766C802.841 657.036 801.727 655.502 800.301 654.293C798.876 653.083 797.181 652.233 795.359 651.815C793.537 651.396 791.641 651.421 789.83 651.886C789.83 652.327 788.86 652.46 788.948 652.856C792.355 655.522 795.026 659.013 796.709 662.998C799.266 663.174 801.823 664.144 804.381 664.232Z" stroke="#263238" stroke-linecap="round" stroke-linejoin="round"/>
<path d="M799.707 672.037C796.84 663.842 792.752 656.127 787.582 649.153C771.399 636.719 778.454 632.706 747.104 627.106C747.104 627.459 686.521 642.759 653.539 657.971C653.539 657.971 436.647 632.309 436.647 630.237L403.136 586.144L308.821 600.827C308.821 600.827 359.131 682.531 397.007 703.475C397.007 703.475 577.788 699.066 636.431 698.757C668.31 698.757 686.212 714.983 717.562 679.93C717.562 679.93 734.67 696.817 744.856 691.967C751.558 690.115 729.776 671.772 722.324 665.776C724.705 667.143 758.216 690.291 776.867 690.953C777.754 690.999 778.632 690.749 779.362 690.242C780.092 689.735 780.633 689 780.901 688.153C781.168 687.305 781.146 686.393 780.839 685.559C780.532 684.725 779.957 684.017 779.204 683.545C779.204 683.545 732.818 657.53 735.111 654.223C735.111 654.223 760.817 663.483 764.918 669.171C782.07 692.716 793.666 684.471 795.298 683.06C798.649 680.15 793.975 677.504 793.975 674.771C793.622 674.815 800.501 676.799 799.707 672.037Z" fill="white" stroke="#263238" stroke-linecap="round" stroke-linejoin="round"/>
<path d="M750.984 642.759C760.156 646.375 773.031 652.107 779.16 659.823C791.065 674.815 793.622 674.815 793.622 674.815" stroke="#263238" stroke-linecap="round" stroke-linejoin="round"/>
<path d="M270.593 445.532C270.593 445.532 241.403 471.987 249.649 541.919C254.058 577.546 296.784 636.718 296.784 636.718L413.057 599.813C413.057 599.813 385.587 537.73 356.486 495.798" stroke="#263238" stroke-miterlimit="10"/>
<path d="M375.357 494.519C382.903 511.923 387.221 530.554 388.1 549.503" stroke="#263238" stroke-linecap="round" stroke-linejoin="round"/>
<path d="M440.879 272.335C440.879 272.6 429.592 289.972 433.119 294.823C447.141 313.253 449.081 335.035 442.952 336.049C434.839 337.328 428.798 330.802 425.315 328.421" stroke="#263238" stroke-linecap="round" stroke-linejoin="round"/>
<path d="M262.215 611.585L285.232 640.422L413.101 599.813L397.404 567.581C397.404 567.581 259.834 611.585 262.215 611.585Z" fill="white" stroke="#263238" stroke-linecap="round" stroke-linejoin="round"/>
<path d="M415.438 427.718C415.438 426.969 431.135 511.803 431.135 511.803L420.685 514.228" stroke="#263238" stroke-linecap="round" stroke-linejoin="round"/>
<path d="M512.045 540.023L528.845 533.806L529.903 559.997L511.737 566.743L512.045 540.023Z" fill="white" stroke="#263238" stroke-linecap="round" stroke-linejoin="round"/>
<path d="M502.786 494.475C507.418 518.089 510.511 541.979 512.045 565.993Z" fill="white"/>
<path d="M502.786 494.475C507.418 518.089 510.511 541.979 512.045 565.993" stroke="#263238" stroke-linecap="round" stroke-linejoin="round"/>
<path d="M497.406 465.682C498.376 471.238 499.347 476.529 500.361 481.776Z" fill="white"/>
<path d="M497.406 465.682C498.376 471.238 499.347 476.529 500.361 481.776" stroke="#263238" stroke-linecap="round" stroke-linejoin="round"/>
</svg>
